<svg width="240" height="240" viewBox="0 0 240 240" fill="none" xmlns="http://www.w3.org/2000/svg"><path d="M130.667 49.7265H40.4638C20.6377 49.7265 4.40579 65.9584 4.40579 85.7845V217.494C4.40579 234.306 16.4638 241.494 31.1884 233.263L76.7536 207.871C81.6232 205.205 89.5072 205.205 94.2609 207.871L139.826 233.263C154.667 241.379 166.725 234.306 166.725 217.494V85.7845C166.725 65.9584 150.493 49.7265 130.667 49.7265Z" fill="#111827"/><path d="M236.288 40.8116V172.522C236.288 189.333 224.23 196.406 209.505 188.29L187.128 175.768C185.273 174.725 184.114 172.754 184.114 170.667V85.7971C184.114 56.3478 160.114 32.3478 130.664 32.3478H83.4764C79.1866 32.3478 76.1721 27.8261 78.1431 24.1159C84.1721 12.6377 96.23 4.75363 110.027 4.75363H200.23C220.056 4.75363 236.288 20.9855 236.288 40.8116Z" fill="#111827"/></svg>
